<?xml version="1.0" encoding="UTF-8" standalone="no"?>
<!DOCTYPE svg PUBLIC "-//W3C//DTD SVG 1.1//EN" "http://www.w3.org/Graphics/SVG/1.1/DTD/svg11.dtd">
<svg width="100%" height="100%" viewBox="0 0 48 48" version="1.1" xmlns="http://www.w3.org/2000/svg" xmlns:xlink="http://www.w3.org/1999/xlink" xml:space="preserve" xmlns:serif="http://www.serif.com/" style="fill-rule:evenodd;clip-rule:evenodd;stroke-linejoin:round;stroke-miterlimit:2;">
    <g>
        <path d="M48,11.25C48,5.041 42.959,0 36.75,0L11.25,0C5.041,0 0,5.041 0,11.25L0,36.75C0,42.959 5.041,48 11.25,48L36.75,48C42.959,48 48,42.959 48,36.75L48,11.25Z" style="fill:rgb(36,41,56);"/>
        <path d="M14.732,34.5L5.679,27.321L10.179,18.964L23.089,24L14.732,34.5Z" style="fill:url(#_Linear1);fill-rule:nonzero;"/>
        <path d="M42.75,15.268L42.054,36.964L27.643,42.75L18.964,37.179L31.661,24L26.089,11.839L31.071,5.839L42.75,15.268Z" style="fill:url(#_Linear2);fill-rule:nonzero;"/>
        <path d="M42.75,15.268L31.339,28.768L26.089,11.839L31.071,5.839L42.75,15.268Z" style="fill:url(#_Linear3);fill-rule:nonzero;"/>
        <path d="M23.304,36.375L8.25,41.839L10.661,33.375L13.821,22.982L5.25,20.089L10.661,5.25L22.446,6.696L34.018,19.929L23.304,36.375Z" style="fill:url(#_Linear4);fill-rule:nonzero;"/>
        <rect x="12.589" y="12.482" width="23.143" height="23.143" style="fill-rule:nonzero;"/>
        <rect x="14.732" y="31.286" width="8.679" height="1.446" style="fill:white;fill-rule:nonzero;"/>
        <path d="M21,17.25L21,15.482L16.179,15.482L16.179,17.25L17.571,17.25L17.571,23.304L16.179,23.304L16.179,25.071L21,25.071L21,23.304L19.661,23.304L19.661,17.25L21,17.25Z" style="fill:white;fill-rule:nonzero;"/>
        <path d="M25.607,25.232C24.857,25.232 24.214,25.071 23.732,24.804C23.25,24.536 22.821,24.161 22.5,23.786L23.839,22.286C24.107,22.607 24.375,22.821 24.643,22.982C24.911,23.143 25.232,23.25 25.554,23.25C25.929,23.25 26.25,23.143 26.518,22.875C26.732,22.607 26.839,22.232 26.839,21.643L26.839,15.482L28.982,15.482L28.982,21.75C28.982,22.339 28.929,22.821 28.768,23.25C28.607,23.679 28.393,24 28.071,24.321C27.804,24.589 27.429,24.857 27,24.964C26.571,25.125 26.143,25.232 25.607,25.232Z" style="fill:white;fill-rule:nonzero;"/>
    </g>
    <defs>
        <linearGradient id="_Linear1" x1="0" y1="0" x2="1" y2="0" gradientUnits="userSpaceOnUse" gradientTransform="matrix(17.4255,0,0,17.4255,5.673,26.7264)"><stop offset="0" style="stop-color:rgb(249,122,18);stop-opacity:1"/><stop offset="0.26" style="stop-color:rgb(249,122,18);stop-opacity:1"/><stop offset="0.46" style="stop-color:rgb(176,123,88);stop-opacity:1"/><stop offset="0.72" style="stop-color:rgb(87,123,174);stop-opacity:1"/><stop offset="0.91" style="stop-color:rgb(30,124,229);stop-opacity:1"/><stop offset="1" style="stop-color:rgb(8,124,250);stop-opacity:1"/></linearGradient>
        <linearGradient id="_Linear2" x1="0" y1="0" x2="1" y2="0" gradientUnits="userSpaceOnUse" gradientTransform="matrix(28.7447,15.9052,-15.9052,28.7447,19.0539,18.5786)"><stop offset="0" style="stop-color:rgb(249,122,18);stop-opacity:1"/><stop offset="0.07" style="stop-color:rgb(203,122,62);stop-opacity:1"/><stop offset="0.15" style="stop-color:rgb(158,123,106);stop-opacity:1"/><stop offset="0.24" style="stop-color:rgb(117,123,145);stop-opacity:1"/><stop offset="0.33" style="stop-color:rgb(83,123,177);stop-opacity:1"/><stop offset="0.43" style="stop-color:rgb(56,124,204);stop-opacity:1"/><stop offset="0.54" style="stop-color:rgb(35,124,224);stop-opacity:1"/><stop offset="0.66" style="stop-color:rgb(20,124,239);stop-opacity:1"/><stop offset="0.79" style="stop-color:rgb(11,124,247);stop-opacity:1"/><stop offset="1" style="stop-color:rgb(8,124,250);stop-opacity:1"/></linearGradient>
        <linearGradient id="_Linear3" x1="0" y1="0" x2="1" y2="0" gradientUnits="userSpaceOnUse" gradientTransform="matrix(-8.00231,-23.9113,23.9113,-8.00231,39.1221,28.2403)"><stop offset="0" style="stop-color:rgb(254,49,93);stop-opacity:1"/><stop offset="0.08" style="stop-color:rgb(203,65,126);stop-opacity:1"/><stop offset="0.16" style="stop-color:rgb(158,78,155);stop-opacity:1"/><stop offset="0.25" style="stop-color:rgb(117,91,180);stop-opacity:1"/><stop offset="0.34" style="stop-color:rgb(83,101,202);stop-opacity:1"/><stop offset="0.44" style="stop-color:rgb(56,109,219);stop-opacity:1"/><stop offset="0.54" style="stop-color:rgb(35,116,233);stop-opacity:1"/><stop offset="0.66" style="stop-color:rgb(20,120,243);stop-opacity:1"/><stop offset="0.79" style="stop-color:rgb(11,123,248);stop-opacity:1"/><stop offset="1" style="stop-color:rgb(8,124,250);stop-opacity:1"/></linearGradient>
        <linearGradient id="_Linear4" x1="0" y1="0" x2="1" y2="0" gradientUnits="userSpaceOnUse" gradientTransform="matrix(24.0017,39.7001,-39.7001,24.0017,10.9931,14.0749)"><stop offset="0" style="stop-color:rgb(254,49,93);stop-opacity:1"/><stop offset="0.04" style="stop-color:rgb(246,52,98);stop-opacity:1"/><stop offset="0.1" style="stop-color:rgb(223,58,113);stop-opacity:1"/><stop offset="0.17" style="stop-color:rgb(194,67,131);stop-opacity:1"/><stop offset="0.29" style="stop-color:rgb(173,74,145);stop-opacity:1"/><stop offset="0.55" style="stop-color:rgb(117,91,180);stop-opacity:1"/><stop offset="0.92" style="stop-color:rgb(29,118,237);stop-opacity:1"/><stop offset="1" style="stop-color:rgb(8,124,250);stop-opacity:1"/></linearGradient>
    </defs>
</svg>
