<?xml version="1.0" encoding="UTF-8" standalone="no"?>
<!DOCTYPE svg PUBLIC "-//W3C//DTD SVG 1.1//EN" "http://www.w3.org/Graphics/SVG/1.1/DTD/svg11.dtd">
<svg width="100%" height="100%" viewBox="0 0 48 48" version="1.1" xmlns="http://www.w3.org/2000/svg" xmlns:xlink="http://www.w3.org/1999/xlink" xml:space="preserve" xmlns:serif="http://www.serif.com/" style="fill-rule:evenodd;clip-rule:evenodd;stroke-linejoin:round;stroke-miterlimit:2;">
    <g>
        <path d="M48,11.25C48,5.041 42.959,0 36.75,0L11.25,0C5.041,0 0,5.041 0,11.25L0,36.75C0,42.959 5.041,48 11.25,48L36.75,48C42.959,48 48,42.959 48,36.75L48,11.25Z" style="fill:rgb(36,41,56);"/>
        <path d="M19.056,34.241C19.056,34.241 17.617,35.117 20.059,35.368C23.008,35.744 24.567,35.681 27.822,35.055C27.822,35.055 28.699,35.62 29.889,36.057C22.562,39.188 13.295,35.87 19.056,34.241ZM18.117,30.171C18.117,30.171 16.552,31.361 18.994,31.611C22.186,31.924 24.692,31.987 29.012,31.111C29.012,31.111 29.576,31.738 30.515,32.051C21.687,34.68 11.793,32.3 18.117,30.172L18.117,30.171ZM35.399,37.31C35.399,37.31 36.463,38.186 34.209,38.875C30.014,40.127 16.614,40.504 12.858,38.875C11.543,38.311 14.047,37.497 14.861,37.372C15.675,37.184 16.113,37.184 16.113,37.184C14.673,36.182 6.533,39.251 11.98,40.134C26.945,42.576 39.281,39.069 35.399,37.316L35.399,37.31ZM19.745,25.913C19.745,25.913 12.92,27.542 17.302,28.104C19.181,28.354 22.875,28.292 26.319,28.042C29.137,27.791 31.961,27.29 31.961,27.29C31.961,27.29 30.959,27.729 30.27,28.167C23.314,29.984 9.977,29.17 13.797,27.291C17.054,25.726 19.745,25.913 19.745,25.913ZM31.954,32.738C38.968,29.106 35.711,25.6 33.457,26.039C32.893,26.164 32.643,26.289 32.643,26.289C32.643,26.289 32.831,25.913 33.269,25.789C37.715,24.223 41.222,30.485 31.829,32.927C31.829,32.927 31.892,32.864 31.954,32.739L31.954,32.738ZM20.434,42.631C27.196,43.069 37.528,42.381 37.778,39.187C37.778,39.187 37.278,40.439 32.206,41.378C26.445,42.442 19.307,42.317 15.112,41.628C15.112,41.628 15.988,42.379 20.434,42.63L20.434,42.631Z" style="fill:white;fill-rule:nonzero;"/>
        <path d="M27.691,5.25C27.691,5.25 31.573,9.195 23.997,15.142C17.923,19.964 22.619,22.719 23.997,25.849C20.428,22.656 17.861,19.838 19.614,17.208C22.187,13.328 29.262,11.45 27.691,5.25ZM25.688,23.22C27.503,25.287 25.187,27.165 25.187,27.165C25.187,27.165 29.821,24.787 27.692,21.843C25.751,19.025 24.248,17.647 32.388,12.95C32.388,12.95 19.552,16.143 25.689,23.219L25.688,23.22Z" style="fill:rgb(245,130,25);fill-rule:nonzero;"/>
    </g>
</svg>
