<?xml version="1.0" encoding="UTF-8" standalone="no"?>
<!DOCTYPE svg PUBLIC "-//W3C//DTD SVG 1.1//EN" "http://www.w3.org/Graphics/SVG/1.1/DTD/svg11.dtd">
<svg width="100%" height="100%" viewBox="0 0 128 128" version="1.1" xmlns="http://www.w3.org/2000/svg" xmlns:xlink="http://www.w3.org/1999/xlink" xml:space="preserve" xmlns:serif="http://www.serif.com/" style="fill-rule:evenodd;clip-rule:evenodd;stroke-linejoin:round;stroke-miterlimit:2;">
    <g transform="matrix(2.6671,0,0,2.6671,0,0)">
        <path d="M48,11.25C48,5.041 42.959,0 36.75,0L11.25,0C5.041,0 0,5.041 0,11.25L0,36.75C0,42.959 5.041,48 11.25,48L36.75,48C42.959,48 48,42.959 48,36.75L48,11.25Z" style="fill:rgb(36,41,56);"/>
    </g>
    <g id="icon" transform="matrix(0.915321,0,0,0.915321,5.93063,5.3348)">
        <path d="M35.7,13.8L92.2,13.8C104.3,13.8 114.1,23.6 114.1,35.7L114.1,92.2C114.1,104.3 104.3,114.1 92.2,114.1L35.7,114.1C23.6,114.1 13.8,104.3 13.8,92.2L13.8,35.7C13.8,23.6 23.6,13.8 35.7,13.8Z" style="fill:url(#_Linear1);fill-rule:nonzero;"/>
        <path d="M90.5,19.2L37.4,19.2C27.3,19.2 19.1,27.4 19.1,37.5L19.1,90.6C19.1,100.7 27.3,108.9 37.4,108.9L90.5,108.9C100.6,108.9 108.8,100.7 108.8,90.6L108.8,37.4C108.8,27.3 100.6,19.2 90.5,19.2ZM107.3,90.8C107.3,100 99.9,107.4 90.7,107.4L37.2,107.4C28.1,107.4 20.6,100 20.6,90.8L20.6,37.2C20.6,28 28,20.6 37.2,20.6L90.8,20.6C99.9,20.6 107.4,28 107.4,37.2L107.4,90.8L107.3,90.8Z" style="fill:white;fill-rule:nonzero;"/>
        <path d="M64.1,22.8C41.5,22.8 23.1,41.2 23.1,63.8C23.1,86.4 41.5,104.8 64.1,104.8C86.8,104.8 105.1,86.4 105.1,63.8C105.1,41.2 86.7,22.8 64.1,22.8ZM64.1,104.2C41.8,104.2 23.7,86.1 23.7,63.8C23.7,41.5 41.8,23.4 64.1,23.4C86.4,23.4 104.5,41.5 104.5,63.8C104.5,86.1 86.4,104.2 64.1,104.2Z" style="fill:rgb(105,197,243);fill-rule:nonzero;"/>
        <path d="M64.1,31.2C46,31.2 31.4,45.8 31.4,63.9C31.4,82 46,96.5 64.1,96.5C82.2,96.5 96.8,81.9 96.8,63.8C96.8,45.7 82.1,31.2 64.1,31.2ZM64.1,95.8C46.4,95.8 32.1,81.5 32.1,63.8C32.1,46.1 46.4,31.8 64.1,31.8C81.8,31.8 96.1,46.1 96.1,63.8C96.1,81.5 81.7,95.8 64.1,95.8Z" style="fill:rgb(104,197,244);fill-rule:nonzero;"/>
        <path d="M32.8,71.3L95.2,71.3C97.8,71.3 99.8,73.4 99.8,75.9C99.8,78.5 97.7,80.5 95.2,80.5L32.8,80.5C30.2,80.5 28.2,78.4 28.2,75.9C28.1,73.4 30.2,71.3 32.8,71.3Z" style="fill:white;fill-rule:nonzero;"/>
        <path d="M32.6,72.2L95.2,72.2C97.2,72.2 98.9,73.8 98.9,75.9L98.9,76C98.9,78 97.3,79.7 95.2,79.7L32.6,79.7C30.6,79.7 28.9,78.1 28.9,76L28.9,75.8C29,73.8 30.6,72.2 32.6,72.2Z" style="fill:rgb(10,147,233);fill-rule:nonzero;"/>
        <path d="M31.1,79.3L96.8,79.3L97.3,79L30.6,79L31.1,79.3Z" style="fill:rgb(22,148,234);fill-rule:nonzero;"/>
        <path d="M29.6,78.1L98.2,78.1L98.4,77.8L29.4,77.8L29.6,78.1Z" style="fill:rgb(49,157,236);fill-rule:nonzero;"/>
        <rect x="29" y="75.8" width="69.9" height="0.4" style="fill:rgb(101,177,238);fill-rule:nonzero;"/>
        <path d="M29.7,73.7L98.3,73.7L98.5,74.1L29.5,74.1L29.7,73.7Z" style="fill:rgb(142,198,243);fill-rule:nonzero;"/>
        <path d="M31.2,72.5L96.8,72.5L97.1,72.6L97.4,72.8L30.6,72.8L30.9,72.6L31.2,72.5Z" style="fill:rgb(149,202,243);fill-rule:nonzero;"/>
        <path d="M93.4,72.2L92.9,72.2C92.9,72.2 94.6,73.4 94.6,76.1C94.6,78.6 92.9,79.7 92.9,79.7L93.4,79.7C93.4,79.7 95.1,78.9 95.1,76.1C95.1,73.1 93.4,72.2 93.4,72.2Z" style="fill:url(#_Linear2);fill-rule:nonzero;"/>
        <path d="M88.6,72.2L88.1,72.2C88.1,72.2 89.6,73.6 89.6,76.1C89.6,78.3 88.1,79.7 88.1,79.7L88.6,79.7C88.6,79.7 90.1,78.6 90.1,76.1C90,73.4 88.6,72.2 88.6,72.2Z" style="fill:url(#_Linear3);fill-rule:nonzero;"/>
        <rect x="63.7" y="72.2" width="0.5" height="7.5" style="fill:url(#_Linear4);fill-rule:nonzero;"/>
        <path d="M58.8,72.2L59.3,72.2C59.3,72.2 59.1,74.1 59.1,76.1C59.1,77.9 59.3,79.7 59.3,79.7L58.8,79.7C58.8,79.7 58.6,77.9 58.6,76.1C58.6,74.1 58.8,72.2 58.8,72.2Z" style="fill:url(#_Linear5);fill-rule:nonzero;"/>
        <path d="M54,72.2L54.5,72.2C54.5,72.2 54,74.1 54,76.1C54,77.9 54.5,79.7 54.5,79.7L54,79.7C54,79.7 53.5,77.9 53.5,76.1C53.5,74.1 54,72.2 54,72.2Z" style="fill:url(#_Linear6);fill-rule:nonzero;"/>
        <path d="M49.1,72.2L49.6,72.2C49.6,72.2 48.9,74.1 48.9,76.1C48.9,77.9 49.6,79.7 49.6,79.7L49.1,79.7C49.1,79.7 48.4,77.9 48.4,76.1C48.4,74.1 49.1,72.2 49.1,72.2Z" style="fill:url(#_Linear7);fill-rule:nonzero;"/>
        <path d="M44.2,72.2L44.7,72.2C44.7,72.2 43.7,73.8 43.7,76.1C43.7,78.1 44.7,79.7 44.7,79.7L44.2,79.7C44.2,79.7 43.2,78.1 43.2,76.1C43.2,73.8 44.2,72.2 44.2,72.2Z" style="fill:url(#_Linear8);fill-rule:nonzero;"/>
        <path d="M39.3,72.2L39.8,72.2C39.8,72.2 38.3,73.6 38.3,76.1C38.3,78.3 39.8,79.7 39.8,79.7L39.3,79.7C39.3,79.7 37.8,78.6 37.8,76.1C37.9,73.4 39.3,72.2 39.3,72.2Z" style="fill:url(#_Linear9);fill-rule:nonzero;"/>
        <path d="M34.5,72.2L35,72.2C35,72.2 33.3,73.4 33.3,76.1C33.3,78.6 35,79.7 35,79.7L34.5,79.7C34.5,79.7 32.8,78.9 32.8,76.1C32.8,73.1 34.5,72.2 34.5,72.2Z" style="fill:url(#_Linear10);fill-rule:nonzero;"/>
        <path d="M62,34.1L93.2,88.1C94.5,90.3 93.7,93.1 91.5,94.4C89.3,95.7 86.5,94.9 85.2,92.7L54,38.7C52.7,36.5 53.5,33.7 55.7,32.4C57.9,31.1 60.7,31.9 62,34.1Z" style="fill:white;fill-rule:nonzero;"/>
        <path d="M61.2,34.5L92.5,88.7C93.5,90.4 92.9,92.7 91.2,93.7L91,93.8C89.3,94.8 87,94.2 86,92.5L54.7,38.2C53.7,36.5 54.3,34.2 56,33.2L56.1,33.1C57.9,32.1 60.2,32.7 61.2,34.5Z" style="fill:url(#_Linear11);fill-rule:nonzero;"/>
        <path d="M54.2,36.7L87,93.6L87.6,93.9L54.2,36.1L54.2,36.7Z" style="fill:url(#_Linear12);fill-rule:nonzero;"/>
        <path d="M54.5,34.8L88.8,94.2L89.2,94.2L54.7,34.5L54.6,34.7L54.5,34.8Z" style="fill:url(#_Linear13);fill-rule:nonzero;"/>
        <path d="M55.9,33.3L90.9,93.8L91.2,93.6L56.2,33.1L55.9,33.3Z" style="fill:url(#_Linear14);fill-rule:nonzero;"/>
        <path d="M58.4,32.7L92.6,92L92.4,92.4L57.9,32.6L58.1,32.6L58.4,32.7Z" style="fill:url(#_Linear15);fill-rule:nonzero;"/>
        <path d="M60.2,33.3L93,90.1L93,90.7L59.6,33L60.2,33.3Z" style="fill:url(#_Linear16);fill-rule:nonzero;"/>
        <path d="M91.5,86.9L91.3,86.5C91.3,86.5 91.1,88.5 88.9,89.9C86.8,91.2 84.9,90.3 84.9,90.3L85.1,90.7C85.1,90.7 86.7,91.8 89.1,90.3C91.5,88.9 91.5,86.9 91.5,86.9ZM89,82.7L88.8,82.3C88.8,82.3 88.3,84.3 86.2,85.5C84.3,86.7 82.4,86.1 82.4,86.1L82.6,86.5C82.6,86.5 84.3,87.2 86.5,85.9C88.7,84.6 89,82.7 89,82.7Z" style="fill:rgb(60,152,234);fill-rule:nonzero;"/>
        <path d="M86.6,78.5L86.4,78.1C86.4,78.1 85.5,79.8 83.6,80.9C81.9,81.9 80,81.9 80,81.9L80.2,82.3C80.2,82.3 82,82.3 83.8,81.3C85.7,80.2 86.6,78.5 86.6,78.5Z" style="fill:rgb(76,164,237);fill-rule:nonzero;"/>
        <path d="M84.2,74.3L84,73.9C84,73.9 82.7,75.6 81,76.5C79.4,77.4 77.5,77.7 77.5,77.7L77.7,78.1C77.7,78.1 79.6,77.8 81.2,76.9C82.8,76 84.2,74.3 84.2,74.3Z" style="fill:rgb(77,167,238);fill-rule:nonzero;"/>
        <path d="M74.3,57.3L74.5,57.7C74.5,57.7 72.8,58.5 71.1,59.4C69.5,60.3 68.1,61.5 68.1,61.5L67.9,61.1C67.9,61.1 69.4,59.9 70.9,59C72.6,58.1 74.3,57.3 74.3,57.3Z" style="fill:url(#_Linear17);fill-rule:nonzero;"/>
        <path d="M71.9,53.1L72.1,53.5C72.1,53.5 70.2,54.1 68.6,55.1C67,56 65.7,57.4 65.7,57.4L65.5,57C65.5,57 66.8,55.6 68.4,54.7C70,53.6 71.9,53.1 71.9,53.1Z" style="fill:url(#_Linear18);fill-rule:nonzero;"/>
        <path d="M67.4,49.8C68.7,49.4 69.7,49.2 69.7,49.2L69.5,48.8C69.5,48.8 68.6,48.9 67.6,49.3C67,49.5 66.9,50 67.4,49.8Z" style="fill:rgb(157,212,247);fill-rule:nonzero;"/>
        <path d="M64.6,40.5L64.8,40.9C64.8,40.9 62.9,40.4 60.7,41.6C58.8,42.8 58.4,44.7 58.4,44.7L58.2,44.3C58.2,44.3 58.4,42.6 60.5,41.3C62.7,39.9 64.6,40.5 64.6,40.5Z" style="fill:url(#_Linear19);fill-rule:nonzero;"/>
        <path d="M62.2,36.2L62.5,36.6C62.5,36.6 60.5,35.8 58.2,37.1C56,38.5 56,40.4 56,40.4L55.7,40C55.7,40 55.5,38.3 57.9,36.8C60.4,35.3 62.2,36.2 62.2,36.2Z" style="fill:url(#_Linear20);fill-rule:nonzero;"/>
        <path d="M55.5,71.3C64.2,56.3 74.2,38.9 74.2,38.9C75.5,36.7 74.7,33.9 72.5,32.6C70.3,31.3 67.5,32.1 66.2,34.3C66.2,34.3 54,55.5 44.8,71.3L55.5,71.3ZM50.1,80.5C45.9,87.7 43,92.9 43,92.9C41.7,95.1 38.9,95.9 36.7,94.6C34.5,93.3 33.7,90.5 35,88.3C35,88.3 36.7,85.2 39.4,80.6C42.8,80.5 49,80.5 50.1,80.5Z" style="fill:white;fill-rule:nonzero;"/>
        <path d="M54.4,71.3C63.2,56.1 73.4,38.4 73.4,38.4C74.4,36.7 73.8,34.4 72.1,33.4L72,33.3C70.3,32.3 68,32.9 67,34.6C67,34.6 55,55.4 45.8,71.3L54.4,71.3ZM49.1,80.5C45.1,87.5 42.2,92.5 42.2,92.5C41.2,94.2 39,94.8 37.2,93.8L37,93.8C35.3,92.8 34.7,90.6 35.7,88.8C35.7,88.8 37.6,85.5 40.5,80.5L49.1,80.5Z" style="fill:url(#_Linear21);fill-rule:nonzero;"/>
        <path d="M54.1,71.3L74,36.9L74,36.3C74,36.3 63,55.4 53.8,71.3L54.1,71.3ZM48.7,80.5L41.1,93.7L40.8,93.9L40.5,94C40.5,94 43.9,88.1 48.3,80.5L48.7,80.5Z" style="fill:url(#_Linear22);fill-rule:nonzero;"/>
        <path d="M52.6,71.3L73.6,35L73.4,34.6C73.4,34.6 61.9,54.5 52.3,71.2L52.6,71.3ZM47.3,80.5L39.3,94.3L38.9,94.3C38.9,94.3 42.3,88.4 46.9,80.4C47.1,80.5 47.3,80.5 47.3,80.5Z" style="fill:url(#_Linear23);fill-rule:nonzero;"/>
        <path d="M50.4,71.3C60.3,54.2 72.2,33.5 72.2,33.5L71.9,33.3L49.9,71.3L50.4,71.3ZM45,80.6C40.6,88.3 37.3,94 37.3,94L37,93.8C37,93.8 40.2,88.2 44.6,80.6C44.8,80.5 44.7,80.5 45,80.6Z" style="fill:url(#_Linear24);fill-rule:nonzero;"/>
        <path d="M48,71.3C57.9,54.2 70.2,32.8 70.2,32.8L69.8,32.8C69.8,32.8 57.5,54.1 47.6,71.3L48,71.3ZM42.2,80.5C38.2,87.4 35.5,92.1 35.5,92.1L35.7,92.5C35.7,92.5 38.6,87.5 42.7,80.5L42.2,80.5Z" style="fill:url(#_Linear25);fill-rule:nonzero;"/>
        <path d="M46.5,71.3L68.5,33.2L68.1,33.4L68,33.5C68,33.5 55.8,54.6 46.2,71.3L46.5,71.3ZM41.2,80.5C37.7,86.6 35.2,90.9 35.2,90.9L35.2,90.1C35.2,90.1 37.4,86.3 40.8,80.4C41,80.5 41,80.5 41.2,80.5Z" style="fill:url(#_Linear26);fill-rule:nonzero;"/>
        <path d="M66,36.2L65.8,36.6C65.8,36.6 67.6,35.7 70,37C72.2,38.2 72.3,40.3 72.3,40.3L72.5,39.9C72.5,39.9 72.7,38 70.2,36.6C67.7,35.2 66,36.2 66,36.2Z" style="fill:url(#_Linear27);fill-rule:nonzero;"/>
        <path d="M63.6,40.5L63.4,40.9C63.4,40.9 65.4,40.3 67.5,41.5C69.5,42.6 69.9,44.5 69.9,44.5L70.1,44.1C70.1,44.1 69.9,42.3 67.7,41.1C65.4,39.8 63.6,40.5 63.6,40.5Z" style="fill:url(#_Linear28);fill-rule:nonzero;"/>
        <path d="M61.1,44.7L60.9,45.1C60.9,45.1 62.7,45 64.7,46.2C66.5,47.2 67.4,48.8 67.4,48.8L67.6,48.4C67.6,48.4 66.7,46.8 64.9,45.8C63,44.7 61.1,44.7 61.1,44.7Z" style="fill:url(#_Linear29);fill-rule:nonzero;"/>
        <path d="M58.7,49L58.5,49.4C58.5,49.4 60.5,49.7 62.2,50.7C63.8,51.6 65,53.1 65,53.1L65.2,52.7C65.2,52.7 64,51.2 62.4,50.3C60.7,49.3 58.7,49 58.7,49Z" style="fill:url(#_Linear30);fill-rule:nonzero;"/>
        <path d="M56.2,53.2L56,53.6C56,53.6 57.9,54.1 59.6,55.1C61.2,56 62.5,57.3 62.5,57.3L62.7,56.9C62.7,56.9 61.4,55.6 59.8,54.7C58.2,53.8 56.2,53.2 56.2,53.2Z" style="fill:url(#_Linear31);fill-rule:nonzero;"/>
        <path d="M53.8,57.4L53.5,57.8C53.5,57.8 55.3,58.5 57,59.5C58.6,60.4 60,61.5 60,61.5L60.2,61.1C60.2,61.1 58.8,60 57.2,59.1C55.6,58.2 53.8,57.4 53.8,57.4Z" style="fill:url(#_Linear32);fill-rule:nonzero;"/>
        <path d="M51.1,62.1L51.3,61.7L57.8,65.4L57.6,65.8L51.1,62.1Z" style="fill:url(#_Linear33);fill-rule:nonzero;"/>
        <path d="M48.7,66.4L48.9,66C48.9,66 50.5,67.2 52.2,68.1C53.8,69 55.4,69.7 55.4,69.7L55.2,70C55.2,70 53.5,69.3 51.9,68.4C50.2,67.5 48.7,66.4 48.7,66.4Z" style="fill:url(#_Linear34);fill-rule:nonzero;"/>
        <path d="M47.1,71.3C46.6,70.9 46.3,70.6 46.3,70.6L46.5,70.2C46.5,70.2 47.1,70.7 47.9,71.3L47.1,71.3Z" style="fill:rgb(115,185,241);fill-rule:nonzero;"/>
        <path d="M43.2,80.5C43.6,80.8 44,81.1 44.5,81.4C46.3,82.4 48.1,82.3 48.1,82.3L47.9,82.7C47.9,82.7 46.1,82.8 44.3,81.8C43.6,81.4 43,80.9 42.6,80.5L43.2,80.5Z" style="fill:url(#_Linear35);fill-rule:nonzero;"/>
        <path d="M38.9,83.3L39.1,82.9C39.1,82.9 39.6,84.9 41.8,86.1C43.8,87.2 45.6,86.6 45.6,86.6L45.4,87C45.4,87 43.8,87.7 41.6,86.5C39.3,85.2 38.9,83.3 38.9,83.3Z" style="fill:url(#_Linear36);fill-rule:nonzero;"/>
        <path d="M36.4,87.6L36.6,87.2C36.6,87.2 36.8,89.3 39.2,90.6C41.4,91.8 43.1,90.9 43.1,90.9L42.8,91.3C42.8,91.3 41.3,92.4 38.9,91C36.4,89.6 36.4,87.6 36.4,87.6Z" style="fill:url(#_Linear37);fill-rule:nonzero;"/>
        <path d="M68.8,114.2L111.6,24.3L100.8,19.2L56.2,112.7C56.2,112.7 57.6,113.4 59.4,114.2L68.8,114.2Z" style="fill:url(#_Linear38);fill-rule:nonzero;"/>
        <path d="M94.1,13.8L114.1,23.3L114.1,52C107.2,48.7 61,26.7 61,26.7C61,26.7 64.2,20 67.2,13.8L94.1,13.8Z" style="fill:url(#_Radial39);fill-rule:nonzero;"/>
        <path d="M44.5,110.2C44.2,110.8 43.7,111.5 43.8,112.6C43.9,116.7 50.6,120.5 54.5,120.5C57.2,120.5 58.1,119.4 59.1,117.4C60.1,115.4 45.6,107.8 44.5,110.2Z" style="fill:url(#_Radial40);fill-rule:nonzero;"/>
        <path d="M90.6,25.1C90.6,25.1 100.9,27.6 101.7,28.3C102.5,29 100.4,33 100,33.6C96.7,37.6 86.4,59.7 86.4,59.7L76.9,54.3C76.9,54.3 85.4,38.5 88.4,32.9C90.3,29.1 90.6,25.1 90.6,25.1Z" style="fill:url(#_Linear41);fill-rule:nonzero;"/>
        <path d="M114.4,19.9C116.2,21.2 118.6,20.9 120.5,20.6C121.8,20.4 119.8,22.3 117.6,26.7C115.4,31.1 115.5,31.4 115.2,31.1C114.9,30.8 105,25.2 105.3,24.7C105.7,24.2 107.3,13.3 108.1,13.6C111,14.3 111.5,17.8 114.4,19.9Z" style="fill:url(#_Linear42);fill-rule:nonzero;"/>
        <path d="M99,32.2C99.7,31.1 102.9,24.3 108,24.3C110.3,24.3 114.7,30.1 115.1,30.9C115.4,31.6 114.4,34.4 113.9,33.1C113.3,31.6 110.8,28.4 108.1,28.4C105.4,28.4 101.7,31.5 100.8,32.6C99.9,33.6 98.3,33.3 99,32.2Z" style="fill:url(#_Linear43);fill-rule:nonzero;"/>
        <path d="M98.8,31.8C99.3,31 101.6,27.5 102.7,26.4C103.8,25.3 106.6,22.4 109,22C111.4,21.6 113.9,26.5 113.1,27.5C112.5,28.2 111.5,27.4 110.3,26.4C109.1,25.5 108.3,23.7 104.5,26.6C103.2,27.6 101.9,28.4 98.9,32.7C98.1,33.8 98.3,32.6 98.8,31.8Z" style="fill:url(#_Linear44);fill-rule:nonzero;"/>
        <path d="M86.4,61C86.8,60.2 87.3,59 86.2,58.1C85,57.2 79.4,54.2 78.4,54C77.4,53.8 76.6,54 76.2,54.7C75.8,55.4 45.1,108 44.5,109.5C43.9,111 43.8,112.1 44.7,112.4C45.6,112.7 55.9,117.6 56.9,118.7C57.9,119.8 58.4,118.6 58.8,118C60.7,115.6 85.9,61.8 86.4,61Z" style="fill:url(#_Linear45);fill-rule:nonzero;"/>
        <path d="M99.5,31.6C100,30.9 101.2,28.9 102.7,27.1C103.7,25.9 109.1,23.3 110.3,19.1C111,16.8 109.9,14.5 108.4,13.5C103.3,10.4 94.5,5.5 81.6,5.5C72.9,5.5 69.2,8.4 69.2,8.4L73.6,8.4L88.9,14.4L90.8,22.4C90.8,22.4 91,25.1 90.1,28.2C89.5,30.7 89.3,32.2 88.4,34.7C89.1,35 90.7,33.9 92.5,34.4C94.1,34.8 95.1,37 96.2,35.7C98.1,33.2 98.7,32.7 99.5,31.6Z" style="fill:url(#_Linear46);fill-rule:nonzero;"/>
        <path d="M90.5,25.4C89.7,18 87.9,11 69.1,11.1C70.3,9.9 73.2,8.7 73.2,8.7L69.1,8.4C69.1,8.4 69.7,7.9 70.9,7.8C81.9,6.9 91.7,9.2 91,23.5C90.9,25.8 90.7,26.8 90.5,25.4Z" style="fill:url(#_Linear47);fill-rule:nonzero;"/>
        <path d="M69.1,11.1C70.4,10.6 72.2,10.3 75.6,10.5C79.8,10.7 85.1,12.3 87.3,14.3C88.4,15.3 88.3,14.5 87.1,13.2C84,9.6 79.3,8.8 73.2,8.7C72.5,8.6 70.2,9.9 69.1,11.1Z" style="fill:url(#_Linear48);fill-rule:nonzero;"/>
        <path d="M120.7,20.6L126.2,23.4C126.2,23.4 124.1,26.2 122.4,29.4C120.6,32.8 119.4,36.5 119.4,36.5L114.1,33.3C114.1,33.3 115.4,29.7 117.3,26.2C118.8,23.3 120.7,20.6 120.7,20.6Z" style="fill:url(#_Linear49);fill-rule:nonzero;"/>
        <path d="M126.2,23.4C126.6,23.6 125.3,26.7 123.4,30.3C121.5,33.9 119.7,36.7 119.4,36.5C119,36.3 120.3,33.2 122.2,29.6C124,26 125.8,23.2 126.2,23.4Z" style="fill:rgb(191,192,208);fill-rule:nonzero;"/>
    </g>
    <defs>
        <linearGradient id="_Linear1" x1="0" y1="0" x2="1" y2="0" gradientUnits="userSpaceOnUse" gradientTransform="matrix(6.14656e-15,-100.381,100.381,6.14656e-15,63.947,114.165)"><stop offset="0" style="stop-color:rgb(21,120,228);stop-opacity:1"/><stop offset="1" style="stop-color:rgb(0,195,242);stop-opacity:1"/></linearGradient>
        <linearGradient id="_Linear2" x1="0" y1="0" x2="1" y2="0" gradientUnits="userSpaceOnUse" gradientTransform="matrix(4.5814e-16,-7.482,7.482,4.5814e-16,94.037,79.666)"><stop offset="0" style="stop-color:rgb(20,146,231);stop-opacity:1"/><stop offset="1" style="stop-color:rgb(219,237,251);stop-opacity:1"/></linearGradient>
        <linearGradient id="_Linear3" x1="0" y1="0" x2="1" y2="0" gradientUnits="userSpaceOnUse" gradientTransform="matrix(4.5814e-16,-7.482,7.482,4.5814e-16,89.042,79.666)"><stop offset="0" style="stop-color:rgb(20,146,231);stop-opacity:1"/><stop offset="1" style="stop-color:rgb(219,237,251);stop-opacity:1"/></linearGradient>
        <linearGradient id="_Linear4" x1="0" y1="0" x2="1" y2="0" gradientUnits="userSpaceOnUse" gradientTransform="matrix(4.5814e-16,-7.482,7.482,4.5814e-16,63.947,79.666)"><stop offset="0" style="stop-color:rgb(20,146,231);stop-opacity:1"/><stop offset="1" style="stop-color:rgb(219,237,251);stop-opacity:1"/></linearGradient>
        <linearGradient id="_Linear5" x1="0" y1="0" x2="1" y2="0" gradientUnits="userSpaceOnUse" gradientTransform="matrix(4.5814e-16,-7.482,7.482,4.5814e-16,58.952,79.666)"><stop offset="0" style="stop-color:rgb(20,146,231);stop-opacity:1"/><stop offset="1" style="stop-color:rgb(219,237,251);stop-opacity:1"/></linearGradient>
        <linearGradient id="_Linear6" x1="0" y1="0" x2="1" y2="0" gradientUnits="userSpaceOnUse" gradientTransform="matrix(4.5814e-16,-7.482,7.482,4.5814e-16,53.958,79.666)"><stop offset="0" style="stop-color:rgb(20,146,231);stop-opacity:1"/><stop offset="1" style="stop-color:rgb(219,237,251);stop-opacity:1"/></linearGradient>
        <linearGradient id="_Linear7" x1="0" y1="0" x2="1" y2="0" gradientUnits="userSpaceOnUse" gradientTransform="matrix(4.5814e-16,-7.482,7.482,4.5814e-16,48.963,79.666)"><stop offset="0" style="stop-color:rgb(20,146,231);stop-opacity:1"/><stop offset="1" style="stop-color:rgb(219,237,251);stop-opacity:1"/></linearGradient>
        <linearGradient id="_Linear8" x1="0" y1="0" x2="1" y2="0" gradientUnits="userSpaceOnUse" gradientTransform="matrix(4.5814e-16,-7.482,7.482,4.5814e-16,43.968,79.666)"><stop offset="0" style="stop-color:rgb(20,146,231);stop-opacity:1"/><stop offset="1" style="stop-color:rgb(219,237,251);stop-opacity:1"/></linearGradient>
        <linearGradient id="_Linear9" x1="0" y1="0" x2="1" y2="0" gradientUnits="userSpaceOnUse" gradientTransform="matrix(4.5814e-16,-7.482,7.482,4.5814e-16,38.852,79.666)"><stop offset="0" style="stop-color:rgb(20,146,231);stop-opacity:1"/><stop offset="1" style="stop-color:rgb(219,237,251);stop-opacity:1"/></linearGradient>
        <linearGradient id="_Linear10" x1="0" y1="0" x2="1" y2="0" gradientUnits="userSpaceOnUse" gradientTransform="matrix(4.5814e-16,-7.482,7.482,4.5814e-16,33.857,79.666)"><stop offset="0" style="stop-color:rgb(20,146,231);stop-opacity:1"/><stop offset="1" style="stop-color:rgb(219,237,251);stop-opacity:1"/></linearGradient>
        <linearGradient id="_Linear11" x1="0" y1="0" x2="1" y2="0" gradientUnits="userSpaceOnUse" gradientTransform="matrix(3.7724e-15,-61.608,61.608,3.7724e-15,73.58,94.25)"><stop offset="0" style="stop-color:rgb(18,133,231);stop-opacity:1"/><stop offset="1" style="stop-color:rgb(0,181,239);stop-opacity:1"/></linearGradient>
        <linearGradient id="_Linear12" x1="0" y1="0" x2="1" y2="0" gradientUnits="userSpaceOnUse" gradientTransform="matrix(-33.383,-57.822,57.822,-33.383,87.464,93.978)"><stop offset="0" style="stop-color:rgb(43,144,231);stop-opacity:1"/><stop offset="1" style="stop-color:rgb(0,182,239);stop-opacity:1"/></linearGradient>
        <linearGradient id="_Linear13" x1="0" y1="0" x2="1" y2="0" gradientUnits="userSpaceOnUse" gradientTransform="matrix(-34.49,-59.738,59.738,-34.49,89.073,94.327)"><stop offset="0" style="stop-color:rgb(55,149,234);stop-opacity:1"/><stop offset="1" style="stop-color:rgb(73,196,242);stop-opacity:1"/></linearGradient>
        <linearGradient id="_Linear14" x1="0" y1="0" x2="1" y2="0" gradientUnits="userSpaceOnUse" gradientTransform="matrix(-34.954,-60.542,60.542,-34.954,91.026,93.735)"><stop offset="0" style="stop-color:rgb(54,150,234);stop-opacity:1"/><stop offset="1" style="stop-color:rgb(144,217,246);stop-opacity:1"/></linearGradient>
        <linearGradient id="_Linear15" x1="0" y1="0" x2="1" y2="0" gradientUnits="userSpaceOnUse" gradientTransform="matrix(-34.517,-59.785,59.785,-34.517,92.582,92.332)"><stop offset="0" style="stop-color:rgb(48,151,234);stop-opacity:1"/><stop offset="1" style="stop-color:rgb(181,229,249);stop-opacity:1"/></linearGradient>
        <linearGradient id="_Linear16" x1="0" y1="0" x2="1" y2="0" gradientUnits="userSpaceOnUse" gradientTransform="matrix(-33.342,-57.75,57.75,-33.342,93.083,90.686)"><stop offset="0" style="stop-color:rgb(58,152,234);stop-opacity:1"/><stop offset="1" style="stop-color:rgb(188,231,250);stop-opacity:1"/></linearGradient>
        <linearGradient id="_Linear17" x1="0" y1="0" x2="1" y2="0" gradientUnits="userSpaceOnUse" gradientTransform="matrix(6.476,-3.739,3.739,6.476,67.981,61.226)"><stop offset="0" style="stop-color:rgb(0,164,236);stop-opacity:1"/><stop offset="1" style="stop-color:rgb(185,223,246);stop-opacity:1"/></linearGradient>
        <linearGradient id="_Linear18" x1="0" y1="0" x2="1" y2="0" gradientUnits="userSpaceOnUse" gradientTransform="matrix(6.475,-3.739,3.739,6.475,65.487,56.906)"><stop offset="0" style="stop-color:rgb(0,164,236);stop-opacity:1"/><stop offset="1" style="stop-color:rgb(185,223,246);stop-opacity:1"/></linearGradient>
        <linearGradient id="_Linear19" x1="0" y1="0" x2="1" y2="0" gradientUnits="userSpaceOnUse" gradientTransform="matrix(6.434,-3.714,3.714,6.434,57.93,43.819)"><stop offset="0" style="stop-color:rgb(0,180,239);stop-opacity:1"/><stop offset="1" style="stop-color:rgb(195,233,250);stop-opacity:1"/></linearGradient>
        <linearGradient id="_Linear20" x1="0" y1="0" x2="1" y2="0" gradientUnits="userSpaceOnUse" gradientTransform="matrix(6.476,-3.739,3.739,6.476,55.424,39.477)"><stop offset="0" style="stop-color:rgb(0,180,239);stop-opacity:1"/><stop offset="1" style="stop-color:rgb(195,233,250);stop-opacity:1"/></linearGradient>
        <linearGradient id="_Linear21" x1="0" y1="0" x2="1" y2="0" gradientUnits="userSpaceOnUse" gradientTransform="matrix(3.77234e-15,-61.607,61.607,3.77234e-15,54.566,94.401)"><stop offset="0" style="stop-color:rgb(18,133,231);stop-opacity:1"/><stop offset="1" style="stop-color:rgb(0,181,239);stop-opacity:1"/></linearGradient>
        <linearGradient id="_Linear22" x1="0" y1="0" x2="1" y2="0" gradientUnits="userSpaceOnUse" gradientTransform="matrix(33.383,-57.82,57.82,33.383,40.681,94.131)"><stop offset="0" style="stop-color:rgb(49,148,233);stop-opacity:1"/><stop offset="1" style="stop-color:rgb(113,207,244);stop-opacity:1"/></linearGradient>
        <linearGradient id="_Linear23" x1="0" y1="0" x2="1" y2="0" gradientUnits="userSpaceOnUse" gradientTransform="matrix(34.494,-59.746,59.746,34.494,39.063,94.482)"><stop offset="0" style="stop-color:rgb(90,166,236);stop-opacity:1"/><stop offset="1" style="stop-color:rgb(162,222,248);stop-opacity:1"/></linearGradient>
        <linearGradient id="_Linear24" x1="0" y1="0" x2="1" y2="0" gradientUnits="userSpaceOnUse" gradientTransform="matrix(34.954,-60.542,60.542,34.954,37.118,93.885)"><stop offset="0" style="stop-color:rgb(102,171,238);stop-opacity:1"/><stop offset="1" style="stop-color:rgb(190,232,250);stop-opacity:1"/></linearGradient>
        <linearGradient id="_Linear25" x1="0" y1="0" x2="1" y2="0" gradientUnits="userSpaceOnUse" gradientTransform="matrix(34.517,-59.785,59.785,34.517,35.568,92.482)"><stop offset="0" style="stop-color:rgb(123,182,240);stop-opacity:1"/><stop offset="1" style="stop-color:rgb(177,227,249);stop-opacity:1"/></linearGradient>
        <linearGradient id="_Linear26" x1="0" y1="0" x2="1" y2="0" gradientUnits="userSpaceOnUse" gradientTransform="matrix(33.359,-57.78,57.78,33.359,35.056,90.872)"><stop offset="0" style="stop-color:rgb(90,166,236);stop-opacity:1"/><stop offset="1" style="stop-color:rgb(175,227,249);stop-opacity:1"/></linearGradient>
        <linearGradient id="_Linear27" x1="0" y1="0" x2="1" y2="0" gradientUnits="userSpaceOnUse" gradientTransform="matrix(6.476,3.739,-3.739,6.476,66.362,35.689)"><stop offset="0" style="stop-color:rgb(193,231,250);stop-opacity:1"/><stop offset="1" style="stop-color:rgb(137,212,245);stop-opacity:1"/></linearGradient>
        <linearGradient id="_Linear28" x1="0" y1="0" x2="1" y2="0" gradientUnits="userSpaceOnUse" gradientTransform="matrix(6.476,3.738,-3.738,6.476,63.856,40.03)"><stop offset="0" style="stop-color:rgb(193,231,250);stop-opacity:1"/><stop offset="1" style="stop-color:rgb(137,212,245);stop-opacity:1"/></linearGradient>
        <linearGradient id="_Linear29" x1="0" y1="0" x2="1" y2="0" gradientUnits="userSpaceOnUse" gradientTransform="matrix(6.475,3.738,-3.738,6.475,61.273,44.505)"><stop offset="0" style="stop-color:rgb(193,231,250);stop-opacity:1"/><stop offset="1" style="stop-color:rgb(137,212,245);stop-opacity:1"/></linearGradient>
        <linearGradient id="_Linear30" x1="0" y1="0" x2="1" y2="0" gradientUnits="userSpaceOnUse" gradientTransform="matrix(6.475,3.739,-3.739,6.475,58.761,48.855)"><stop offset="0" style="stop-color:rgb(176,223,248);stop-opacity:1"/><stop offset="1" style="stop-color:rgb(82,189,242);stop-opacity:1"/></linearGradient>
        <linearGradient id="_Linear31" x1="0" y1="0" x2="1" y2="0" gradientUnits="userSpaceOnUse" gradientTransform="matrix(6.477,3.739,-3.739,6.477,56.25,53.204)"><stop offset="0" style="stop-color:rgb(180,222,248);stop-opacity:1"/><stop offset="1" style="stop-color:rgb(78,181,240);stop-opacity:1"/></linearGradient>
        <linearGradient id="_Linear32" x1="0" y1="0" x2="1" y2="0" gradientUnits="userSpaceOnUse" gradientTransform="matrix(6.475,3.738,-3.738,6.475,53.74,57.553)"><stop offset="0" style="stop-color:rgb(180,222,248);stop-opacity:1"/><stop offset="1" style="stop-color:rgb(78,181,240);stop-opacity:1"/></linearGradient>
        <linearGradient id="_Linear33" x1="0" y1="0" x2="1" y2="0" gradientUnits="userSpaceOnUse" gradientTransform="matrix(6.474,3.738,-3.738,6.474,51.239,61.886)"><stop offset="0" style="stop-color:rgb(181,221,248);stop-opacity:1"/><stop offset="1" style="stop-color:rgb(70,174,238);stop-opacity:1"/></linearGradient>
        <linearGradient id="_Linear34" x1="0" y1="0" x2="1" y2="0" gradientUnits="userSpaceOnUse" gradientTransform="matrix(6.476,3.739,-3.739,6.476,48.735,66.22)"><stop offset="0" style="stop-color:rgb(150,206,244);stop-opacity:1"/><stop offset="1" style="stop-color:rgb(70,170,238);stop-opacity:1"/></linearGradient>
        <linearGradient id="_Linear35" x1="0" y1="0" x2="1" y2="0" gradientUnits="userSpaceOnUse" gradientTransform="matrix(4.962,2.865,-2.865,4.962,42.719,80.135)"><stop offset="0" style="stop-color:rgb(143,193,242);stop-opacity:1"/><stop offset="1" style="stop-color:rgb(49,147,234);stop-opacity:1"/></linearGradient>
        <linearGradient id="_Linear36" x1="0" y1="0" x2="1" y2="0" gradientUnits="userSpaceOnUse" gradientTransform="matrix(6.476,3.739,-3.739,6.476,38.634,83.717)"><stop offset="0" style="stop-color:rgb(143,193,242);stop-opacity:1"/><stop offset="1" style="stop-color:rgb(49,147,234);stop-opacity:1"/></linearGradient>
        <linearGradient id="_Linear37" x1="0" y1="0" x2="1" y2="0" gradientUnits="userSpaceOnUse" gradientTransform="matrix(6.475,3.739,-3.739,6.475,36.124,88.063)"><stop offset="0" style="stop-color:rgb(143,193,242);stop-opacity:1"/><stop offset="1" style="stop-color:rgb(49,147,234);stop-opacity:1"/></linearGradient>
        <linearGradient id="_Linear38" x1="0" y1="0" x2="1" y2="0" gradientUnits="userSpaceOnUse" gradientTransform="matrix(12.457,6.075,-6.075,12.457,76.722,64.933)"><stop offset="0" style="stop-color:black;stop-opacity:1"/><stop offset="0" style="stop-color:black;stop-opacity:1"/><stop offset="1" style="stop-color:black;stop-opacity:0"/></linearGradient>
        <radialGradient id="_Radial39" cx="0" cy="0" r="1" gradientUnits="userSpaceOnUse" gradientTransform="matrix(-7.27174,14.4545,-25.011,-12.584,95.24,25.1301)"><stop offset="0" style="stop-color:black;stop-opacity:1"/><stop offset="1" style="stop-color:black;stop-opacity:0"/></radialGradient>
        <radialGradient id="_Radial40" cx="0" cy="0" r="1" gradientUnits="userSpaceOnUse" gradientTransform="matrix(7.09431,3.47802,-1.97999,4.0382,51.2071,114.958)"><stop offset="0" style="stop-color:rgb(12,12,18);stop-opacity:1"/><stop offset="0.42" style="stop-color:rgb(12,12,18);stop-opacity:1"/><stop offset="1" style="stop-color:rgb(61,70,81);stop-opacity:1"/></radialGradient>
        <linearGradient id="_Linear41" x1="0" y1="0" x2="1" y2="0" gradientUnits="userSpaceOnUse" gradientTransform="matrix(9.764,4.975,-4.975,9.764,84.758,39.174)"><stop offset="0" style="stop-color:rgb(52,67,81);stop-opacity:1"/><stop offset="0.1" style="stop-color:rgb(150,151,160);stop-opacity:1"/><stop offset="0.18" style="stop-color:rgb(139,140,149);stop-opacity:1"/><stop offset="0.35" style="stop-color:rgb(120,122,131);stop-opacity:1"/><stop offset="0.47" style="stop-color:rgb(113,116,125);stop-opacity:1"/><stop offset="0.59" style="stop-color:rgb(119,121,130);stop-opacity:1"/><stop offset="0.75" style="stop-color:rgb(135,137,143);stop-opacity:1"/><stop offset="0.8" style="stop-color:rgb(142,143,148);stop-opacity:1"/><stop offset="0.85" style="stop-color:rgb(61,59,66);stop-opacity:1"/><stop offset="0.9" style="stop-color:rgb(96,110,132);stop-opacity:1"/><stop offset="1" style="stop-color:rgb(96,110,132);stop-opacity:1"/></linearGradient>
        <linearGradient id="_Linear42" x1="0" y1="0" x2="1" y2="0" gradientUnits="userSpaceOnUse" gradientTransform="matrix(-11.021,-14.893,14.893,-11.021,117.884,29.257)"><stop offset="0" style="stop-color:rgb(38,43,51);stop-opacity:1"/><stop offset="0.27" style="stop-color:rgb(38,43,51);stop-opacity:1"/><stop offset="0.45" style="stop-color:rgb(116,116,126);stop-opacity:1"/><stop offset="0.54" style="stop-color:rgb(176,176,188);stop-opacity:1"/><stop offset="0.73" style="stop-color:rgb(116,116,126);stop-opacity:1"/><stop offset="1" style="stop-color:rgb(116,116,126);stop-opacity:1"/></linearGradient>
        <linearGradient id="_Linear43" x1="0" y1="0" x2="1" y2="0" gradientUnits="userSpaceOnUse" gradientTransform="matrix(16.273,-2.102,2.102,16.273,98.542,30.424)"><stop offset="0" style="stop-color:rgb(96,110,132);stop-opacity:1"/><stop offset="0.14" style="stop-color:rgb(96,110,132);stop-opacity:1"/><stop offset="0.4" style="stop-color:rgb(152,153,165);stop-opacity:1"/><stop offset="0.73" style="stop-color:rgb(71,87,104);stop-opacity:1"/><stop offset="0.92" style="stop-color:rgb(38,43,51);stop-opacity:1"/><stop offset="1" style="stop-color:rgb(38,43,51);stop-opacity:1"/></linearGradient>
        <linearGradient id="_Linear44" x1="0" y1="0" x2="1" y2="0" gradientUnits="userSpaceOnUse" gradientTransform="matrix(-1.579,-8.954,8.954,-1.579,106.128,31.808)"><stop offset="0" style="stop-color:rgb(16,18,21);stop-opacity:0.1"/><stop offset="0.46" style="stop-color:rgb(16,18,21);stop-opacity:0.7"/><stop offset="0.7" style="stop-color:rgb(71,73,81);stop-opacity:1"/><stop offset="0.91" style="stop-color:rgb(123,125,136);stop-opacity:1"/><stop offset="1" style="stop-color:rgb(123,125,136);stop-opacity:1"/></linearGradient>
        <linearGradient id="_Linear45" x1="0" y1="0" x2="1" y2="0" gradientUnits="userSpaceOnUse" gradientTransform="matrix(15.106,7.433,-7.433,15.106,58.131,81.721)"><stop offset="0" style="stop-color:rgb(44,57,82);stop-opacity:1"/><stop offset="0.12" style="stop-color:rgb(44,57,82);stop-opacity:1"/><stop offset="0.37" style="stop-color:rgb(61,65,78);stop-opacity:1"/><stop offset="0.55" style="stop-color:rgb(71,74,84);stop-opacity:1"/><stop offset="0.75" style="stop-color:rgb(78,80,87);stop-opacity:1"/><stop offset="0.89" style="stop-color:rgb(50,57,69);stop-opacity:1"/><stop offset="1" style="stop-color:rgb(20,48,82);stop-opacity:1"/></linearGradient>
        <linearGradient id="_Linear46" x1="0" y1="0" x2="1" y2="0" gradientUnits="userSpaceOnUse" gradientTransform="matrix(11.682,-25.632,25.632,11.682,81.508,31.679)"><stop offset="0" style="stop-color:rgb(109,112,120);stop-opacity:0"/><stop offset="0.12" style="stop-color:rgb(109,112,120);stop-opacity:0"/><stop offset="0.2" style="stop-color:rgb(109,112,120);stop-opacity:0.7"/><stop offset="0.34" style="stop-color:rgb(53,54,58);stop-opacity:1"/><stop offset="0.37" style="stop-color:rgb(29,31,34);stop-opacity:1"/><stop offset="0.4" style="stop-color:rgb(16,18,21);stop-opacity:1"/><stop offset="0.5" style="stop-color:rgb(22,23,26);stop-opacity:1"/><stop offset="0.56" style="stop-color:rgb(41,42,46);stop-opacity:1"/><stop offset="0.69" style="stop-color:rgb(75,77,81);stop-opacity:1"/><stop offset="0.81" style="stop-color:rgb(99,102,107);stop-opacity:1"/><stop offset="0.92" style="stop-color:rgb(114,117,123);stop-opacity:1"/><stop offset="1" style="stop-color:rgb(119,122,128);stop-opacity:1"/></linearGradient>
        <linearGradient id="_Linear47" x1="0" y1="0" x2="1" y2="0" gradientUnits="userSpaceOnUse" gradientTransform="matrix(21.962,0,0,21.962,69.064,16.837)"><stop offset="0" style="stop-color:rgb(74,77,86);stop-opacity:1"/><stop offset="1" style="stop-color:rgb(41,41,45);stop-opacity:1"/></linearGradient>
        <linearGradient id="_Linear48" x1="0" y1="0" x2="1" y2="0" gradientUnits="userSpaceOnUse" gradientTransform="matrix(18.99,0,0,18.99,69.064,11.697)"><stop offset="0" style="stop-color:rgb(118,120,128);stop-opacity:1"/><stop offset="0.41" style="stop-color:rgb(12,10,11);stop-opacity:1"/><stop offset="1" style="stop-color:rgb(12,10,11);stop-opacity:1"/></linearGradient>
        <linearGradient id="_Linear49" x1="0" y1="0" x2="1" y2="0" gradientUnits="userSpaceOnUse" gradientTransform="matrix(7.375,-12.774,12.774,7.375,116.332,34.756)"><stop offset="0" style="stop-color:rgb(133,137,151);stop-opacity:1"/><stop offset="0.23" style="stop-color:rgb(36,70,104);stop-opacity:1"/><stop offset="0.28" style="stop-color:rgb(26,50,73);stop-opacity:1"/><stop offset="0.4" style="stop-color:rgb(4,5,6);stop-opacity:1"/><stop offset="0.46" style="stop-color:rgb(49,50,54);stop-opacity:1"/><stop offset="0.55" style="stop-color:rgb(101,101,110);stop-opacity:1"/><stop offset="0.61" style="stop-color:rgb(134,134,145);stop-opacity:1"/><stop offset="0.64" style="stop-color:rgb(146,146,158);stop-opacity:1"/><stop offset="1" style="stop-color:rgb(146,146,158);stop-opacity:1"/></linearGradient>
    </defs>
</svg>
